<?xml version="1.0"?>
<svg xmlns="http://www.w3.org/2000/svg" xmlns:xlink="http://www.w3.org/1999/xlink" version="1.1" id="Capa_1" x="0px" y="0px" width="512px" height="512px" viewBox="0 0 70.061 70.06" style="enable-background:new 0 0 70.061 70.06;" xml:space="preserve"><g><g>
	<path d="M37.706,18.613v5.525l-8.8-8.804l8.8-8.799v5.459c11.95,0.899,21.26,7.937,21.26,16.493c0,1.13-0.165,2.24-0.479,3.308   C56.449,24.798,48.068,19.397,37.706,18.613z M29.779,53.352C19.413,52.572,11.037,47.175,9,40.167   c-0.312,1.072-0.475,2.176-0.475,3.308c0,8.554,9.301,15.594,21.256,16.492v5.461l8.801-8.801l-8.801-8.8v5.524H29.779z    M59.011,55.98l-6.858-12.665h-4.18l4.916,8.367h-3.354v2.532h4.836l2.404,4.088h-6.361v2.531h6.811v8.837h3.548v-8.837h6.998   v-2.531h-6.549l2.413-4.088h4.747v-2.532h-3.258l4.937-8.367h-4.184L59.011,55.98z M7.79,25.879v-9.392   c-2.492-0.47-4.335-1.259-5.523-2.365c-1.189-1.099-1.785-2.63-1.785-4.584c0-1.743,0.64-3.317,1.922-4.721   C3.684,3.413,5.476,2.706,7.79,2.682V0.39h1.636v2.262c2.287,0.156,4.039,0.832,5.265,2.016c1.222,1.186,1.864,2.756,1.919,4.705   h-3.016c-0.079-0.872-0.319-1.629-0.707-2.259c-0.727-1.159-1.881-1.771-3.461-1.824v8.39c2.667,0.745,4.476,1.451,5.428,2.102   c1.551,1.08,2.322,2.678,2.322,4.791c0,3.061-0.992,5.225-2.978,6.515c-1.101,0.711-2.692,1.181-4.772,1.413v3.342H7.79V28.5   c-3.345-0.225-5.612-1.406-6.809-3.553C0.33,23.789,0,22.219,0,20.242h3.051c0.094,1.574,0.341,2.722,0.745,3.45   C4.515,24.992,5.844,25.72,7.79,25.879z M9.428,25.968c1.964-0.091,3.319-0.813,4.066-2.159c0.39-0.689,0.588-1.487,0.588-2.39   c0-1.436-0.535-2.53-1.59-3.274c-0.61-0.439-1.629-0.848-3.064-1.24V25.968L9.428,25.968z M7.79,13.351V5.249   C6.274,5.307,5.193,5.77,4.548,6.629C3.905,7.491,3.583,8.394,3.583,9.336c0,1.135,0.377,2.026,1.132,2.675   C5.48,12.651,6.505,13.097,7.79,13.351z" data-original="#000000" class="active-path" data-old_color="#000000" fill="#FFFFFF"/>
</g></g> </svg>
